<?xml version="1.0" encoding="iso-8859-1"?>
<!-- Generator: Adobe Illustrator 25.4.1, SVG Export Plug-In . SVG Version: 6.00 Build 0)  -->
<svg fill="#FFFFFF" version="1.1" id="Layer_1" xmlns="http://www.w3.org/2000/svg" xmlns:xlink="http://www.w3.org/1999/xlink" x="0px" y="0px"
	 viewBox="0 0 48 48" style="enable-background:new 0 0 48 48;" xml:space="preserve">
<g>
	<path d="M20,23.474V31.5c0,0.828-0.672,1.5-1.5,1.5S17,32.328,17,31.5v-13c0-0.659,0.431-1.241,1.062-1.435
		c0.627-0.19,1.314,0.049,1.682,0.596l0.249,0.37L20,18l15.234,22.546C40.524,36.947,44,30.88,44,24c0-11.046-8.954-20-20-20
		S4,12.954,4,24s8.954,20,20,20c3.082,0,5.99-0.718,8.597-1.963L20,23.474z M28,16.5c0-0.828,0.672-1.5,1.5-1.5s1.5,0.672,1.5,1.5
		v12.79l-3-4.304V16.5z"/>
</g>
</svg>